<?xml version="1.0" standalone="no"?>
<!DOCTYPE svg PUBLIC "-//W3C//DTD SVG 1.1//EN" "http://www.w3.org/Graphics/SVG/1.1/DTD/svg11.dtd" >
<!--
2013-9-30: Created.
-->
<svg>
<metadata>
Created by iconfont
</metadata>
<defs>

<font id="aui-icons" horiz-adv-x="1024" >
  <font-face
    font-family="aui-icons"
    font-weight="500"
    font-stretch="normal"
    units-per-em="1024"
    ascent="896"
    descent="-128"
  />
    <missing-glyph />
    
    <glyph glyph-name="Addarowdown" unicode="&#59021;" d="M467.2 742.4v-89.6H243.2v-313.6h44.8v268.8h179.2v-89.6H870.4V742.4H467.2z m0-716.8H870.4v224H467.2V25.6zM512 204.8h313.6v-134.4H512V204.8z m-224 44.8H243.2v-89.6H153.6v-44.8h89.6V25.6h44.8v89.6h89.6v44.8h-89.6v89.6z"  horiz-adv-x="1024" />

    
    <glyph glyph-name="warning" unicode="&#59022;" d="M512 896C229.2224 896 0 666.7776 0 384s229.2224-512 512-512 512 229.2224 512 512S794.7776 896 512 896z m51.2-780.8a38.4 38.4 0 0 0-38.4-38.4h-25.6a38.4 38.4 0 0 0-38.4 38.4v25.6256a38.4 38.4 0 0 0 38.4 38.4h25.6a38.4 38.4 0 0 0 38.4-38.4V115.2z m0 166.4v-12.8a38.4 38.4 0 0 0-38.4-38.4h-25.6a38.4 38.4 0 0 0-38.4 38.4V281.6l-25.6 332.8a76.8 76.8 0 1 0 153.6 0l-25.6-332.8z"  horiz-adv-x="1024" />

    
    <glyph glyph-name="arrow-left" unicode="&#59023;" d="M622.08 724.8384L323.0208 469.1968c-55.2448-46.9504-55.2448-123.2896 0-170.1888l299.0592-255.8464c27.5968-23.4496 72.192-23.4496 99.4816 0 27.6992 23.7056 27.6992 61.7472 0 85.1968l-299.008 255.744 299.008 255.5392c27.6992 23.552 27.6992 61.6448 0 85.248-27.2384 23.296-71.7824 23.296-99.4816-0.0512z"  horiz-adv-x="1024" />

    
    <glyph glyph-name="arrow-down" unicode="&#59024;" d="M852.9408 593.664c-23.552 27.648-61.5936 27.648-85.1968 0l-255.488-299.1104-255.8464 299.1104c-23.5008 27.648-61.6448 27.648-85.248 0-23.4496-27.4432-23.4496-71.9872 0-99.584l255.744-298.9568c47.0528-55.3472 123.2896-55.3472 170.4448 0l255.5904 298.9568c23.296 27.7504 23.296 72.3456 0 99.584z"  horiz-adv-x="1024" />

    
    <glyph glyph-name="Addarowup" unicode="&#59025;" d="M467.2 160h-179.2v268.8H243.2v-313.6h224V25.6H870.4v224H467.2v-89.6zM467.2 742.4v-224H870.4V742.4H467.2z m358.4-179.2H512V697.6h313.6V563.2zM243.2 518.4h44.8v89.6h89.6V652.8h-89.6V742.4H243.2v-89.6H153.6v-44.8h89.6v-89.6z"  horiz-adv-x="1024" />

    
    <glyph glyph-name="arrow-right" unicode="&#59026;" d="M302.2848 724.8896c-27.5968-23.6032-27.5968-61.696 0-85.248l299.1104-255.488-299.1104-255.744c-27.5968-23.4496-27.5968-61.5424 0-85.1968 27.4432-23.4496 72.0384-23.4496 99.6352 0l299.0592 255.8464c55.1936 46.8992 55.1936 123.1872 0 170.1888L401.92 724.8896c-27.6992 23.3472-72.2944 23.3472-99.6352 0z"  horiz-adv-x="1024" />

    
    <glyph glyph-name="caret-bottom" unicode="&#59027;" d="M193.0752 563.2h636.928c29.44 0 51.6096-17.3568 34.3552-34.5088-13.9776-13.7216-293.7856-288.9216-317.9008-312.5248-15.7184-15.3088-53.2992-15.104-69.0688 0-17.5616 16.9984-298.9056 293.1712-318.5152 313.2416-14.2848 14.592 1.6384 33.792 34.2016 33.792z"  horiz-adv-x="1024" />

    
    <glyph glyph-name="arrow-up" unicode="&#59028;" d="M852.8896 273.9712l-255.5904 299.1104c-47.104 55.1424-123.3408 55.1424-170.3936 0l-255.6928-299.1104c-23.5008-27.648-23.5008-72.192 0-99.5328 23.6032-27.7504 61.7472-27.7504 85.1968 0l255.744 299.008 255.5904-299.008c23.6032-27.7504 61.696-27.7504 85.1968 0 23.2448 27.2896 23.2448 71.8336-0.0512 99.5328z"  horiz-adv-x="1024" />

    
    <glyph glyph-name="caret-left" unicode="&#59029;" d="M691.2 702.976v-636.9792c0-29.3376-17.3056-51.5584-34.4576-34.304-13.7728 13.9776-289.024 293.7856-312.576 317.8496-15.3088 15.7696-15.0528 53.3504 0 69.12 16.9472 17.5616 293.12 298.9056 313.2928 318.5152 14.592 14.2848 33.7408-1.6384 33.7408-34.2016z"  horiz-adv-x="1024" />

    
    <glyph glyph-name="caret-top" unicode="&#59030;" d="M158.8224 238.5408c19.6096 20.1728 300.9536 296.3456 318.5152 313.2928 15.8208 15.0528 53.3504 15.3088 69.0688 0l317.9008-312.576c17.2544-17.152-4.9152-34.4576-34.3552-34.4576H193.024c-32.5632 0-48.4864 19.2512-34.2016 33.7408z"  horiz-adv-x="1024" />

    
    <glyph glyph-name="caret-right" unicode="&#59031;" d="M332.8 65.024V701.952c0 29.44 17.3568 51.6096 34.4576 34.4064l312.5248-317.9008c15.36-15.8208 15.0528-53.3504 0-69.12-16.9472-17.5616-293.1712-298.9056-313.2416-318.5152-14.592-14.336-33.7408 1.6384-33.7408 34.2016z"  horiz-adv-x="1024" />

    
    <glyph glyph-name="close" unicode="&#59032;" d="M847.2576 48.7936a78.9504 78.9504 0 0 0-111.7696 0L176.7936 607.488a79.0016 79.0016 0 1 0 111.7184 111.7696l558.7456-558.6432a79.1552 79.1552 0 0 0 0-111.8208zM176.7936 48.7936a79.0016 79.0016 0 0 0 0 111.8208L735.488 719.2576a79.0016 79.0016 0 1 0 111.7696-111.7696L288.512 48.7936a79.1552 79.1552 0 0 0-111.7184 0z"  horiz-adv-x="1024" />

    
    <glyph glyph-name="check" unicode="&#59033;" d="M760.9856 644.8128a59.7504 59.7504 0 0 0 90.624 0c25.0368-26.0608 25.0368-69.376 0-95.8464l-403.7632-426.752a61.44 61.44 0 0 0-90.368 0l-2.6624 3.1744-182.9376 193.6896c-24.3712 25.5488-24.3712 69.3248 0 94.5152 25.6 27.3408 66.4064 27.3408 91.0336 0l139.7248-148.0192 358.3488 379.2384z"  horiz-adv-x="1024" />

    
    <glyph glyph-name="d-arrow-left" unicode="&#59034;" d="M188.5184 310.9376l253.6448-219.0848c23.3984-20.0704 61.184-20.0704 84.48 0 23.3472 20.2752 23.3472 52.8896 0 73.0624L273.0496 384l253.4912 219.0848c23.3472 20.1728 23.3472 52.8384 0 73.0624-23.3472 20.1216-61.184 20.1216-84.48 0l-253.5424-219.136c-46.5408-40.2944-46.5408-105.7792 0-146.0736z m326.4512 0l253.4912-219.0848a66.816 66.816 0 0 1 84.48 0c23.296 20.2752 23.296 52.8896 0 73.0624L599.3984 384l253.5424 218.9824c23.296 20.1728 23.296 52.8384 0 73.0624-23.3472 20.1216-61.2864 20.1216-84.48 0l-253.4912-219.0336c-46.6944-40.2944-46.6944-105.7792 0-146.0736z"  horiz-adv-x="1024" />

    
    <glyph glyph-name="custom" unicode="&#59035;" d="M819.2 435.2h-56.3712a255.3856 255.3856 0 0 1-37.4272 89.856l39.9872 39.9872a51.1488 51.1488 0 1 1-72.3968 72.3968l-39.9872-39.9872A254.1056 254.1056 0 0 1 563.2 634.8288V691.2a51.2 51.2 0 0 1-102.4 0v-56.3712a253.4912 253.4912 0 0 1-89.856-37.4272l-39.9872 40.0384A51.2 51.2 0 0 1 258.56 565.0432l39.9872-40.0384A254.1056 254.1056 0 0 1 261.1712 435.2H204.8a51.2 51.2 0 1 1 0-102.4h56.3712c6.656-32.6656 19.6096-62.9248 37.376-89.8048l-39.9872-39.9872a51.1488 51.1488 0 1 1 72.3968-72.3968l39.9872 39.9872A253.4912 253.4912 0 0 1 460.8 133.1712V76.8a51.2 51.2 0 1 1 102.4 0v56.3712a256.6144 256.6144 0 0 1 89.856 37.376l39.936-39.936a51.1488 51.1488 0 1 1 72.3968 72.3968l-39.936 39.936a254.3616 254.3616 0 0 1 37.376 89.856H819.2a51.2 51.2 0 0 1 0 102.4z m-307.2-204.8a153.6 153.6 0 1 0 0 307.2 153.6 153.6 0 0 0 0-307.2z"  horiz-adv-x="1024" />

    
    <glyph glyph-name="Deleteentireline" unicode="&#59036;" d="M467.2 495.9744v-224H870.4V495.9744H467.2z m-122.9312 0L265.6256 417.3312 186.88 495.9744 153.6 462.7456 232.2432 384 153.6 305.3568l33.28-33.3312 78.6944 78.7456 78.6432-78.7456 33.3312 33.3312L298.9568 384l78.6432 78.7456-33.3312 33.2288z"  horiz-adv-x="1024" />

    
    <glyph glyph-name="date" unicode="&#59037;" d="M740.0448 351.3856h-65.0752v-65.0752h65.0752v65.0752z m0 130.3552h-65.0752v-65.1264h65.0752V481.7408z m-130.3552 0h-65.1264v-65.1264h65.1264V481.7408z m-260.608-130.3552H283.904v-65.0752h65.1776v65.0752zM153.6 742.4v-716.8h716.8V742.4H153.6z m521.216-65.1264h65.2288v-65.1776H674.816V677.2736z m-130.2016 0h65.0752v-65.1776h-65.0752V677.2736z m-130.3552 0h65.1264v-65.1776H414.2592V677.2736z m-130.3552 0h65.1776v-65.1776H283.904V677.2736z m521.3696-586.5984H218.7776V546.9184h586.496v-456.2432zM479.3856 481.7408H414.2592v-65.1264h65.1264V481.7408z m0-130.3552H414.2592v-65.0752h65.1264v65.0752z m130.304-130.2016h-65.1264v-65.2288h65.1264V221.184z m-130.304 0H414.2592v-65.2288h65.1264V221.184z m130.304 130.2016h-65.1264v-65.0752h65.1264v65.0752z m-260.608-130.2016H283.904v-65.2288h65.1776V221.184z"  horiz-adv-x="1024" />

    
    <glyph glyph-name="d-arrow-right" unicode="&#59038;" d="M835.5328 457.0112l-253.6448 219.0848c-23.296 20.1728-61.1328 20.1728-84.48 0-23.3472-20.224-23.3472-52.8384 0-73.0112L750.8992 384l-253.4912-219.0848c-23.3472-20.1216-23.3472-52.7872 0-73.0624a66.6624 66.6624 0 0 1 84.48 0l253.6448 219.0848c46.5408 40.2944 46.5408 105.8304 0 146.0736z m-326.5024 0L255.5392 676.0448c-23.296 20.1216-61.1328 20.1216-84.48 0-23.296-20.224-23.296-52.8896 0-73.0624L424.5504 384l-253.4912-219.0848c-23.296-20.1216-23.296-52.7872 0-73.0624a66.6624 66.6624 0 0 1 84.48 0l253.4912 219.0848c46.6944 40.2944 46.6944 105.8304 0 146.0736z"  horiz-adv-x="1024" />

    
    <glyph glyph-name="delete" unicode="&#59039;" d="M682.6496 168.96H614.4V455.68h-68.2496v-286.72H477.8496V455.68H409.6v-286.72H341.3504V455.68H273.0496v-322.56c0-59.3408 11.7248-107.52 68.2496-107.52h341.3504c56.5248 0 68.3008 48.128 68.3008 107.52V455.68h-68.3008v-286.72z m102.4 501.76h-102.4v35.84c0 19.7632-15.3088 35.84-34.0992 35.84H375.4496c-18.7904 0-34.0992-16.0768-34.0992-35.84v-35.84h-102.4c-18.8928 0-34.1504-16.0768-34.1504-35.84v-71.68c0-19.7632 15.2576-35.84 34.1504-35.84h546.1504c18.7392 0 34.0992 16.0768 34.0992 35.84V634.88c0 19.7632-15.36 35.84-34.1504 35.84z"  horiz-adv-x="1024" />

    
    <glyph glyph-name="down" unicode="&#59040;" d="M204.8 318.5152L280.0128 390.144l156.8256-149.504V742.4h150.3744v-501.76l156.8256 149.504L819.2 318.5152 512 25.6l-307.2 292.9152z"  horiz-adv-x="1024" />

    
    <glyph glyph-name="Editorlogo" unicode="&#59041;" d="M153.6 742.4h716.8L153.6 25.6V742.4z"  horiz-adv-x="1024" />

    
    <glyph glyph-name="download" unicode="&#59042;" d="M153.6 145.0496h716.8V25.6H153.6zM512 204.8L273.0496 448.8704l58.4704 59.7504L453.5296 384V742.4h116.9408v-358.4l122.0608 124.6208 58.5216-59.7504L512 204.8z"  horiz-adv-x="1024" />

    
    <glyph glyph-name="error" unicode="&#59043;" d="M512 896C229.2224 896 0 666.7776 0 384s229.2224-512 512-512 512 229.2224 512 512S794.7776 896 512 896z m240.8704-679.9104a38.656 38.656 0 0 0 0-54.7328l-18.2528-18.2528a38.656 38.656 0 0 0-54.7328 0L512 311.0144l-167.9104-167.9104a38.7072 38.7072 0 0 0-54.7584 0l-18.2272 18.2528a38.656 38.656 0 0 0 0 54.7328L439.0144 384l-167.9104 167.9104a38.656 38.656 0 0 0 0 54.7328l18.2272 18.2528a38.7584 38.7584 0 0 0 54.7584 0L512 456.9856l167.9104 167.9104c15.104 15.104 39.6288 15.104 54.7328 0l18.2528-18.2528a38.656 38.656 0 0 0 0-54.7328L584.9856 384l167.8848-167.9104z"  horiz-adv-x="1024" />

    
    <glyph glyph-name="Fullscreen" unicode="&#59044;" d="M377.6 249.6h268.8v268.8h-268.8v-268.8zM153.6 563.2L332.8 742.4H153.6v-179.2zM153.6 25.6h179.2L153.6 204.8V25.6zM691.2 742.4L870.4 563.2V742.4h-179.2zM870.4 25.6v179.2L691.2 25.6H870.4z"  horiz-adv-x="1024" />

    
    <glyph glyph-name="edit" unicode="&#59045;" d="M805.5296 580.6592a52.1728 52.1728 0 0 1 0 73.3184l-72.8064 73.2672a51.0464 51.0464 0 0 1-72.704 0l-28.6208-28.7232 145.5104-146.5344 28.6208 28.672z m-363.5712-292.8128a50.9952 50.9952 0 0 1 72.6528 0l187.4432 188.7744-145.5104 146.432-187.4944-188.672a52.2752 52.2752 0 0 1 0-73.2672l72.9088-73.2672z m-198.7584 33.0752v-159.9488h158.8736L243.2 320.9216z m604.8256-250.112H176.0256c-12.3904 0-22.4256-5.0176-22.4256-11.2128v-22.6304c0-6.2976 10.0352-11.3152 22.4256-11.3152h672c12.288 0 22.4256 5.0176 22.4256 11.3152v22.528c-0.0512 6.144-10.1376 11.3152-22.4256 11.3152z"  horiz-adv-x="1024" />

    
    <glyph glyph-name="info" unicode="&#59046;" d="M512 896C229.2224 896 0 666.7776 0 384s229.2224-512 512-512c282.752 0 512 229.2224 512 512S794.752 896 512 896z m0-819.2a76.8 76.8 0 0 0-76.8 76.8l25.6 281.6v12.8a38.4 38.4 0 0 0 38.4 38.4h25.6a38.4 38.4 0 0 0 38.4-38.4v-12.8l25.6-281.6a76.8 76.8 0 0 0-76.8-76.8z m0 460.8a76.8 76.8 0 1 0 0 153.6 76.8 76.8 0 0 0 0-153.6z"  horiz-adv-x="1024" />

    
    <glyph glyph-name="left" unicode="&#59047;" d="M446.4128 691.2l71.68-75.2128L368.64 459.1616H870.4v-150.3744H368.64l149.504-156.8256L446.464 76.8 153.6 384l292.8128 307.2z"  horiz-adv-x="1024" />

    
    <glyph glyph-name="export" unicode="&#59048;" d="M870.4 268.4928v-182.272c0-33.4336-26.7776-60.6208-59.7504-60.6208H213.3504A60.2112 60.2112 0 0 0 153.6 86.3744v182.1184c0 33.536 26.6752 60.7744 59.7504 60.7744 32.9728 0 59.7504-27.2384 59.7504-60.7744v-121.4464h477.8496v121.4464c0 33.536 26.6752 60.7744 59.6992 60.7744 32.9728 0 59.7504-27.2896 59.7504-60.7744z m-298.6496 242.8928v-273.3056a30.208 30.208 0 0 0-29.9008-30.3616H482.1504a30.1568 30.1568 0 0 0-29.8496 30.3616V511.3856H242.9952l186.88 195.4304a112.64 112.64 0 0 0 164.2496 0l186.88-195.4304h-209.2544z"  horiz-adv-x="1024" />

    
    <glyph glyph-name="prompt-info" unicode="&#59050;" d="M452.2496 503.4496h119.4496V563.2H452.2496v-59.7504zM512 742.4c-197.888 0-358.4-160.512-358.4-358.4 0-197.8368 160.512-358.4 358.4-358.4 197.8368 0 358.4 160.5632 358.4 358.4 0 197.888-160.5632 358.4-358.4 358.4z m0-657.0496a298.6496 298.6496 0 1 0 0 597.2992 298.6496 298.6496 0 0 0 0-597.2992zM452.2496 204.8h119.4496V443.7504H452.2496V204.8z"  horiz-adv-x="1024" />

    
    <glyph glyph-name="Rawsize" unicode="&#59051;" d="M377.6 249.6h268.8v268.8h-268.8v-268.8zM332.8 563.2V742.4L153.6 563.2h179.2z m0-537.6v179.2H153.6L332.8 25.6z m358.4 716.8v-179.2H870.4L691.2 742.4z m0-716.8l179.2 179.2h-179.2V25.6z"  horiz-adv-x="1024" />

    
    <glyph glyph-name="right" unicode="&#59052;" d="M577.4848 76.8L505.856 152.0128l149.504 156.8256H153.6V459.1616h501.76L505.856 615.9872 577.4848 691.2 870.4 384l-292.9152-307.2z"  horiz-adv-x="1024" />

    
    <glyph glyph-name="question" unicode="&#59053;" d="M512 896C229.2224 896 0 666.7776 0 384s229.2224-512 512-512c282.752 0 512 229.2224 512 512S794.752 896 512 896z m51.2-780.8a38.4 38.4 0 0 0-38.4-38.4h-25.6a38.4 38.4 0 0 0-38.4 38.4v25.6a38.4 38.4 0 0 0 38.4 38.4h25.6a38.4 38.4 0 0 0 38.4-38.4v-25.6z m52.7616 251.2896C587.392 347.5712 563.2 316.6976 563.2 281.6a51.2 51.2 0 0 0-102.4 0c0 81.8432 30.0032 132.4032 95.744 168.0384A76.5696 76.5696 0 0 1 588.8 512a76.8 76.8 0 0 1-153.6 0 51.2 51.2 0 0 0-102.4 0 179.2 179.2 0 1 0 358.4 0c0-60.1088-29.8496-112.9984-75.2384-145.5104z"  horiz-adv-x="1024" />

    
    <glyph glyph-name="prompt-warning" unicode="&#59054;" d="M512 742.4a358.4 358.4 0 0 1 0-716.8c197.8368 0 358.4 160.5632 358.4 358.4 0 197.888-160.5632 358.4-358.4 358.4z m0-657.0496a298.6496 298.6496 0 1 0 0 597.2992 298.6496 298.6496 0 0 0 0-597.2992z m22.4256 522.6496h-44.8a22.4256 22.4256 0 0 1-22.4256-22.4256v-268.8c0-12.3392 10.0352-22.4256 22.4256-22.4256h44.8a22.4768 22.4768 0 0 1 22.4256 22.4256v268.8a22.528 22.528 0 0 1-22.4256 22.4256z m0-358.4h-44.8a22.4256 22.4256 0 0 1-22.4256-22.4256v-44.8c0-12.3392 10.0352-22.4256 22.4256-22.4256h44.8a22.4768 22.4768 0 0 1 22.4256 22.4256v44.8a22.528 22.528 0 0 1-22.4256 22.4256z"  horiz-adv-x="1024" />

    
    <glyph glyph-name="search" unicode="&#59055;" d="M851.6096 138.5472l-142.3872 142.2848a299.2128 299.2128 0 0 1 47.0528 160.3072 301.3632 301.3632 0 1 1-301.3632-301.4656 299.6224 299.6224 0 0 1 160.256 47.0016l142.2848-142.2848c21.7088-21.6064 53.3504-25.1904 70.6048-7.8336l31.3856 31.3344c17.2544 17.408 13.7728 48.9472-7.8336 70.656z m-396.6976 121.8048a180.736 180.736 0 1 0-0.0512 361.4208 180.736 180.736 0 0 0 0.0512-361.4208z"  horiz-adv-x="1024" />

    
    <glyph glyph-name="refresh" unicode="&#59056;" d="M757.76 386.2016c-33.9456 0-61.44-26.9312-61.44-60.0576 0-99.5328-82.5344-180.3264-184.32-180.3264-101.8368 0-184.32 80.7936-184.32 180.3264S410.1632 506.4192 512 506.4192v-94.9248c0-14.4896 11.7248-25.2416 23.3984-16.7936 9.3696 6.7584 195.9936 143.7696 211.968 155.4944 10.3936 7.68 10.24 26.112 0 33.792-11.5712 8.5504-198.8608 146.2784-212.4288 155.8528-9.9328 6.9632-22.9376-0.7168-22.9376-16.7424v-96.4608c-169.728 0-307.2-134.4512-307.2-300.4928S342.272 25.6 512 25.6c169.6768 0 307.2 134.5536 307.2 300.544 0 33.1776-27.5456 60.0576-61.44 60.0576z"  horiz-adv-x="1024" />

    
    <glyph glyph-name="minus" unicode="&#59057;" d="M225.28 307.2c-39.68 0-71.68 34.4064-71.68 76.8 0 42.496 32 76.8 71.68 76.8h573.44c39.6288 0 71.68-34.304 71.68-76.8 0-42.3936-32.0512-76.8-71.68-76.8H225.28z"  horiz-adv-x="1024" />

    
    <glyph glyph-name="sort-down" unicode="&#59058;" d="M597.3504 294.4V742.4H426.6496v-448H256L512 25.6l256 268.8z"  horiz-adv-x="1024" />

    
    <glyph glyph-name="sort" unicode="&#59059;" d="M571.7504 324.2496H452.2496V204.8H332.8L512 25.6l179.2 179.2h-119.4496v119.4496zM452.2496 443.7504h119.4496V563.2H691.2L512 742.4 332.8 563.2h119.4496v-119.4496z"  horiz-adv-x="1024" />

    
    <glyph glyph-name="setting" unicode="&#59060;" d="M332.8 712.5504A30.0032 30.0032 0 0 1 302.9504 742.4H243.2a29.952 29.952 0 0 1-29.8496-29.8496v-89.6H332.8v89.6z m238.9504 0A30.0032 30.0032 0 0 1 541.8496 742.4H482.1504a30.0032 30.0032 0 0 1-29.9008-29.8496V384h119.4496V712.5504z m-358.4-657.1008c0-16.4352 13.4144-29.8496 29.8496-29.8496h59.7504c16.384 0 29.8496 13.4144 29.8496 29.8496V384H213.3504v-328.5504zM810.6496 712.5504A29.952 29.952 0 0 1 780.8 742.4h-59.7504a29.952 29.952 0 0 1-29.8496-29.8496v-89.6h119.4496v89.6z m29.9008-149.3504h-179.2a30.0032 30.0032 0 0 1-29.9008-29.8496V473.6c0-16.4352 13.4656-29.8496 29.9008-29.8496h179.2A29.9008 29.9008 0 0 1 870.4 473.6V533.3504a29.952 29.952 0 0 1-29.8496 29.8496z m-448-29.8496a29.9008 29.9008 0 0 1-29.8496 29.8496h-179.2A30.0032 30.0032 0 0 1 153.6 533.3504V473.6c0-16.4352 13.4656-29.8496 29.8496-29.8496h179.2a29.952 29.952 0 0 1 29.8496 29.8496V533.3504z m298.6496-477.9008c0-16.4352 13.4144-29.8496 29.8496-29.8496h59.7504a29.9008 29.9008 0 0 1 29.8496 29.8496V384H691.2v-328.5504z m-238.9504 0c0-16.4352 13.4656-29.8496 29.9008-29.8496h59.7504a29.952 29.952 0 0 1 29.9008 29.8496v89.6H452.2496v-89.6z m149.3504 268.8h-179.2a29.9008 29.9008 0 0 1-29.8496-29.8496v-59.7504c0-16.4352 13.4656-29.8496 29.8496-29.8496h179.2a29.9008 29.9008 0 0 1 29.8496 29.8496V294.4a29.9008 29.9008 0 0 1-29.8496 29.8496z"  horiz-adv-x="1024" />

    
    <glyph glyph-name="more" unicode="&#59061;" d="M204.8 460.8a76.8 76.8 0 1 1 0-153.6 76.8 76.8 0 0 1 0 153.6z m307.2 0a76.8 76.8 0 1 1 0-153.6 76.8 76.8 0 0 1 0 153.6z m307.2 0a76.8 76.8 0 1 1 0-153.6 76.8 76.8 0 0 1 0 153.6z"  horiz-adv-x="1024" />

    
    <glyph glyph-name="sort-up" unicode="&#59062;" d="M768 473.6L512 742.4 256 473.6h170.6496V25.6h170.7008V473.6z"  horiz-adv-x="1024" />

    
    <glyph glyph-name="time" unicode="&#59063;" d="M512 742.4a358.4 358.4 0 1 1 0-716.8 358.4 358.4 0 0 1 0 716.8z m0-651.7248a293.2736 293.2736 0 1 0 0.1024 586.5472A293.2736 293.2736 0 0 0 512 90.6752z m32.5632 521.4208H479.3856v-260.6592h195.4304V416.6144h-130.2528V612.096z"  horiz-adv-x="1024" />

    
    <glyph glyph-name="up" unicode="&#59064;" d="M819.2 449.536l-75.1616-71.68-156.8256 149.504V25.6H436.8384V527.36l-156.8256-149.504L204.8 449.536 512 742.4l307.2-292.864z"  horiz-adv-x="1024" />

    
    <glyph glyph-name="upload" unicode="&#59065;" d="M153.6 145.0496h716.8V25.6H153.6zM750.9504 498.3296l-58.4704-59.7504L570.4704 563.2v-358.4H453.5296v358.4L331.5712 438.5792 273.0496 498.3296 512 742.4l238.9504-244.0704z"  horiz-adv-x="1024" />

    
    <glyph glyph-name="success" unicode="&#59066;" d="M512 896C229.2224 896 0 666.7776 0 384s229.2224-512 512-512c282.752 0 512 229.2224 512 512S794.752 896 512 896z m258.8928-385.6128l-0.4096-0.3328 0.2304-0.2304-307.712-307.7376-0.256 0.256a52.1984 52.1984 0 0 0-71.936-0.0256l-0.2304-0.2304-162.944 162.9184 0.2304 0.2304-0.4096 0.3328a49.664 49.664 0 0 0 0 71.2704 52.1728 52.1728 0 0 0 72.3456 0.3328l0.2304 0.2304 126.72-126.72 271.488 271.5392 0.256-0.256a52.1728 52.1728 0 0 0 72.3456-0.3072 49.664 49.664 0 0 0 0.0512-71.2704z"  horiz-adv-x="1024" />

    
    <glyph glyph-name="panelsplit-left" unicode="&#59067;" d="M452.266667 896h119.466666v-1024H452.266667zM512 802.133333m-25.6 0a25.6 25.6 0 1 1 51.2 0 25.6 25.6 0 1 1-51.2 0ZM512 716.8m-25.6 0a25.6 25.6 0 1 1 51.2 0 25.6 25.6 0 1 1-51.2 0ZM512 631.466667m-25.6 0a25.6 25.6 0 1 1 51.2 0 25.6 25.6 0 1 1-51.2 0ZM491.229867 434.432a12042.752 12042.752 0 0 0 44.7488-45.499733c2.133333-2.235733 2.184533-7.594667 0-9.864534l-44.6464-45.397333c-2.4576-2.474667-4.932267 0.699733-4.932267 4.898133V429.568c0 4.625067 2.730667 6.912 4.829867 4.864zM512 136.533333m-25.6 0a25.6 25.6 0 1 1 51.2 0 25.6 25.6 0 1 1-51.2 0ZM512 51.2m-25.6 0a25.6 25.6 0 1 1 51.2 0 25.6 25.6 0 1 1-51.2 0ZM512-34.133333m-25.6 0a25.6 25.6 0 1 1 51.2 0 25.6 25.6 0 1 1-51.2 0Z"  horiz-adv-x="1024" />

    
    <glyph glyph-name="panelsplit-right" unicode="&#59068;" d="M452.266667 896h119.466666v-1024H452.266667zM512 802.133333m-25.6 0a25.6 25.6 0 1 1 51.2 0 25.6 25.6 0 1 1-51.2 0ZM512 716.8m-25.6 0a25.6 25.6 0 1 1 51.2 0 25.6 25.6 0 1 1-51.2 0ZM512 631.466667m-25.6 0a25.6 25.6 0 1 1 51.2 0 25.6 25.6 0 1 1-51.2 0ZM537.6 429.568v-90.999467c0-4.1984-2.474667-7.3728-4.932267-4.898133l-44.6464 45.397333c-2.184533 2.269867-2.1504 7.6288 0 9.864534 2.423467 2.525867 41.8816 42.7008 44.7488 45.499733 2.0992 2.048 4.829867-0.238933 4.829867-4.864zM512 136.533333m-25.6 0a25.6 25.6 0 1 1 51.2 0 25.6 25.6 0 1 1-51.2 0ZM512 51.2m-25.6 0a25.6 25.6 0 1 1 51.2 0 25.6 25.6 0 1 1-51.2 0ZM512-34.133333m-25.6 0a25.6 25.6 0 1 1 51.2 0 25.6 25.6 0 1 1-51.2 0Z"  horiz-adv-x="1024" />

    
    <glyph glyph-name="panelsplit-down" unicode="&#59069;" d="M0 896h8777.142857v-1024H0zM804.571429 384m-219.428572 0a219.428571 219.428571 0 1 1 438.857143 0 219.428571 219.428571 0 1 1-438.857143 0ZM1536 384m-219.428571 0a219.428571 219.428571 0 1 1 438.857142 0 219.428571 219.428571 0 1 1-438.857142 0ZM2267.428571 384m-219.428571 0a219.428571 219.428571 0 1 1 438.857143 0 219.428571 219.428571 0 1 1-438.857143 0ZM3997.988571 603.428571h779.995429c35.986286 0 63.195429-21.211429 41.984-42.276571l-389.12-382.537143c-19.456-18.870857-65.389714-18.432-84.553143 0a93059.949714 93059.949714 0 0 0-389.997714 383.414857c-17.700571 17.993143 2.048 41.398857 41.691428 41.398857zM6509.714286 384m-219.428572 0a219.428571 219.428571 0 1 1 438.857143 0 219.428571 219.428571 0 1 1-438.857143 0ZM7241.142857 384m-219.428571 0a219.428571 219.428571 0 1 1 438.857143 0 219.428571 219.428571 0 1 1-438.857143 0ZM7972.571429 384m-219.428572 0a219.428571 219.428571 0 1 1 438.857143 0 219.428571 219.428571 0 1 1-438.857143 0Z"  horiz-adv-x="8777" />

    
    <glyph glyph-name="panelsplit-up" unicode="&#59070;" d="M0 896h8777.142857v-1024H0zM804.571429 384m-219.428572 0a219.428571 219.428571 0 1 1 438.857143 0 219.428571 219.428571 0 1 1-438.857143 0ZM1536 384m-219.428571 0a219.428571 219.428571 0 1 1 438.857142 0 219.428571 219.428571 0 1 1-438.857142 0ZM2267.428571 384m-219.428571 0a219.428571 219.428571 0 1 1 438.857143 0 219.428571 219.428571 0 1 1-438.857143 0ZM3956.297143 205.970286a103223.588571 103223.588571 0 0 0 389.997714 383.561143c19.163429 18.285714 65.097143 18.724571 84.553143 0l389.12-382.683429c21.211429-21.065143-5.997714-42.276571-41.984-42.276571H3997.988571c-39.643429 0-59.392 23.405714-41.691428 41.398857zM6509.714286 384m-219.428572 0a219.428571 219.428571 0 1 1 438.857143 0 219.428571 219.428571 0 1 1-438.857143 0ZM7241.142857 384m-219.428571 0a219.428571 219.428571 0 1 1 438.857143 0 219.428571 219.428571 0 1 1-438.857143 0ZM7972.571429 384m-219.428572 0a219.428571 219.428571 0 1 1 438.857143 0 219.428571 219.428571 0 1 1-438.857143 0Z"  horiz-adv-x="8777" />

    
    <glyph glyph-name="file" unicode="&#59072;" d="M736 25.6h-448a44.8 44.8 0 0 0-44.8 44.8V697.6c0 24.7296 20.0704 44.8 44.8 44.8h313.6v-2.7648l179.2-176.4352v-492.8a44.8512 44.8512 0 0 0-44.8-44.8zM601.6 653.1584V563.2h90.6752L601.6 653.1584z m134.4-134.7584H601.6a44.8 44.8 0 0 0-44.8 44.8V697.6h-268.8v-627.2h448v448z"  horiz-adv-x="1024" />

    
    <glyph glyph-name="loading" unicode="&#59073;" d="M530.5344 555.9808a93.184 93.184 0 1 0 0 186.368 93.184 93.184 0 0 0 0-186.368zM332.0832 481.8944a85.1968 85.1968 0 1 0 0 170.3936 85.1968 85.1968 0 0 0 0-170.3936z m-84.224-192.6656a75.1616 75.1616 0 1 0 75.2128 75.1616v-0.0512a75.3664 75.3664 0 0 0-75.2128-75.1104z m84.224-190.6688a63.6416 63.6416 0 1 0-0.1024 127.2832 63.6416 63.6416 0 0 0 0.1024-127.2832zM530.5344 25.6c-30.72 0-55.552 24.832-55.552 55.552a55.5008 55.5008 0 1 0 111.104 0c0-30.72-24.832-55.552-55.552-55.552z m201.472 93.9008a45.0048 45.0048 0 1 0 0.0512 89.9584 45.0048 45.0048 0 0 0-0.0512-89.9584z m82.432 207.7696a36.864 36.864 0 1 0 0 73.728 36.864 36.864 0 0 0 0-73.728z m-111.1552 237.1072a28.7232 28.7232 0 1 0 28.8256-28.5696 28.7744 28.7744 0 0 0-28.8256 28.5696z"  horiz-adv-x="1024" />

    
    <glyph glyph-name="plus" unicode="&#59049;" d="M583.68 97.28a71.6288 71.6288 0 1 0-143.36 0V670.72a71.6288 71.6288 0 1 0 143.36 0v-573.44zM225.28 312.32c-39.68 0-71.68 32.1024-71.68 71.68 0 39.6288 32 71.68 71.68 71.68h573.44a71.68 71.68 0 1 0 0-143.36H225.28z"  horiz-adv-x="1024" />

    
    <glyph glyph-name="circle-close" unicode="&#59074;" d="M512 742.4a358.4 358.4 0 1 1 0-716.8 358.4 358.4 0 0 1 0 716.8z m168.6016-475.9552a27.0336 27.0336 0 0 0 0-38.2976l-12.8-12.8a27.0848 27.0848 0 0 0-38.2464 0L512 332.9024l-117.5552-117.5552a27.1872 27.1872 0 0 0-38.3488 0l-12.6976 12.8a27.0336 27.0336 0 0 0 0 38.2976L460.9024 384 343.3984 501.5552a27.0336 27.0336 0 0 0 0 38.2976l12.6976 12.8a27.136 27.136 0 0 0 38.3488 0L512 435.0976l117.5552 117.504a27.0336 27.0336 0 0 0 38.2976 0l12.8-12.8a27.136 27.136 0 0 0 0-38.2976L563.0976 384l117.504-117.5552z"  horiz-adv-x="1024" />

    
    <glyph glyph-name="circle-check" unicode="&#59075;" d="M512 742.4a358.4 358.4 0 1 1 0-716.8 358.4 358.4 0 0 1 0 716.8z m181.248-269.9264l-0.3072-0.256 0.1536-0.1536-215.3984-215.3984-0.1536 0.2048a36.4544 36.4544 0 0 0-50.3296-0.0512l-0.2048-0.1536-114.0736 114.0224 0.1536 0.1536-0.256 0.2048a34.7136 34.7136 0 0 0 0 49.8688 36.4544 36.4544 0 0 0 50.6368 0.3072l0.1536 0.1536 88.6784-88.7296 190.0544 190.1056 0.1536-0.1536a36.5568 36.5568 0 0 0 50.6368-0.2048c14.08-13.824 14.08-36.1472 0.1024-49.92z"  horiz-adv-x="1024" />

    
    <glyph glyph-name="transfer1" unicode="&#59076;" d="M200.9088 454.5536h622.1824c26.112 0 47.3088 22.1696 47.3088 49.408 0 27.3408-21.1968 49.3568-47.3088 49.3568H314.4192l95.6416 99.9424a50.8928 50.8928 0 0 1 0 69.888 46.08 46.08 0 0 1-66.9696 0l-172.032-179.712a46.1824 46.1824 0 0 1-5.12-6.2464 50.1248 50.1248 0 0 1-12.3392-33.2288c0-27.2384 21.1456-49.408 47.3088-49.408z m622.1824-141.1072H200.9088c-26.1632 0-47.3088-22.1696-47.3088-49.3568 0-27.3408 21.1456-49.4592 47.3088-49.4592h508.672l-95.5904-99.8912a50.688 50.688 0 0 1 0-69.7856c16.896-18.2784 45.7216-19.456 64.3072-2.6624l2.6112 2.6624 172.0832 179.5584a50.0224 50.0224 0 0 1 5.12 6.2976 50.3808 50.3808 0 0 1 12.288 33.28c0 27.1872-21.1968 49.3568-47.3088 49.3568z"  horiz-adv-x="1024" />

    


  </font>
</defs>
</svg>
